<svg width="30" height="30" viewBox="0 0 30 30" fill="none" xmlns="http://www.w3.org/2000/svg">
<path d="M15 0C12.0333 0 9.13319 0.879735 6.66645 2.52796C4.19971 4.17618 2.27713 6.51886 1.14181 9.25975C0.00649927 12.0006 -0.290551 15.0166 0.288227 17.9264C0.867006 20.8361 2.29562 23.5088 4.3934 25.6066C6.49119 27.7044 9.16393 29.133 12.0736 29.7118C14.9834 30.2906 17.9994 29.9935 20.7403 28.8582C23.4811 27.7229 25.8238 25.8003 27.472 23.3335C29.1203 20.8668 30 17.9667 30 15C29.9958 11.023 28.4141 7.21017 25.602 4.39804C22.7898 1.5859 18.977 0.00419974 15 0ZM26.0365 21.2625H21.1875L19.8519 19.4221L21.6736 14.1173L23.837 13.412L27.6216 16.3154C27.4426 18.0566 26.9027 19.7414 26.0365 21.2625ZM2.3827 16.3154L6.1601 13.4135L8.32356 14.1187L10.1452 19.4236L8.8125 21.2625H3.96347C3.09628 19.7417 2.55546 18.0568 2.37549 16.3154H2.3827ZM3.82501 9.01154L4.61972 11.6942L2.4101 13.3803C2.606 11.8505 3.08119 10.3697 3.81203 9.01154H3.82501ZM12.2596 18.4615L10.6067 13.6514L15 10.6312L19.3933 13.6514L17.7404 18.4615H12.2596ZM25.3947 11.6942L26.1894 9.01154C26.9203 10.3697 27.3954 11.8505 27.5913 13.3803L25.3947 11.6942ZM24.5005 6.59134L23.1288 11.2183L20.9553 11.9236L16.1538 8.62356V6.37644L20.3495 3.49183C21.9298 4.23085 23.342 5.2857 24.499 6.59134H24.5005ZM17.6063 2.5774L15 4.36875L12.3938 2.5774C14.1126 2.21778 15.8874 2.21778 17.6063 2.5774ZM9.65049 3.49183L13.8462 6.37644V8.62356L9.04616 11.9236L6.8726 11.2183L5.50097 6.59134C6.65801 5.2857 8.0702 4.23085 9.65049 3.49183ZM5.64664 23.5702H8.58462L9.61876 26.4937C8.11706 25.787 6.76778 24.7939 5.64664 23.5702ZM12.4039 27.4226L10.6904 22.6024L12.0216 20.7692H17.9784L19.3096 22.6024L17.6034 27.4226C15.8864 27.7824 14.1136 27.7824 12.3966 27.4226H12.4039ZM20.3885 26.4937L21.4226 23.5702H24.3606C23.2373 24.7947 21.8855 25.7878 20.3813 26.4937H20.3885Z" fill="#292929"/>
</svg>
